<svg width="100" height="100" viewBox="0 0 100 100" fill="none" xmlns="http://www.w3.org/2000/svg">
<circle cx="50" cy="50" r="50" fill="#D9D9D9"/>
<path fill-rule="evenodd" clip-rule="evenodd" d="M50 63.4997C57.4557 63.4997 63.5 57.4555 63.5 49.9998C63.5 42.5442 57.4557 36.5 50 36.5C42.5443 36.5 36.5 42.5442 36.5 49.9998C36.5 57.4555 42.5443 63.4997 50 63.4997ZM50 64.9997C58.2845 64.9997 65 58.2842 65 49.9998C65 41.7154 58.2845 35 50 35C41.7155 35 35 41.7154 35 49.9998C35 58.2842 41.7155 64.9997 50 64.9997Z" fill="black"/>
<path d="M41 58.7223C41 57.9476 41.579 57.2928 42.35 57.2073C48.1363 56.5668 51.89 56.6246 57.6635 57.2216C57.9518 57.2518 58.2251 57.3654 58.4499 57.5484C58.6747 57.7315 58.8414 57.976 58.9295 58.2521C59.0176 58.5283 59.0234 58.8242 58.9462 59.1036C58.8689 59.383 58.712 59.6339 58.4945 59.8255C51.6808 65.7647 47.7868 65.683 41.48 59.8315C41.1725 59.5465 41 59.1415 41 58.7231V58.7223Z" fill="black"/>
<path fill-rule="evenodd" clip-rule="evenodd" d="M57.5863 57.9674C51.8585 57.3749 48.1588 57.3194 42.4318 57.9532C42.0463 57.9959 41.75 58.3252 41.75 58.7234C41.75 58.9379 41.8393 59.1412 41.99 59.2822C45.116 62.1816 47.4845 63.4919 49.7998 63.5001C52.1233 63.5084 54.6193 62.2086 58.0018 59.2612C58.1092 59.1655 58.1866 59.0407 58.2244 58.9019C58.2623 58.7631 58.259 58.6163 58.215 58.4794C58.171 58.3424 58.0881 58.2212 57.9765 58.1304C57.8649 58.0397 57.7293 57.9833 57.5863 57.9682V57.9674ZM42.2675 56.4622C48.1145 55.815 51.923 55.8735 57.7415 56.4757C58.1752 56.521 58.5864 56.6917 58.9245 56.967C59.2627 57.2424 59.5133 57.6103 59.6456 58.0258C59.7778 58.4414 59.7861 58.8865 59.6693 59.3066C59.5525 59.7267 59.3158 60.1037 58.988 60.3914C55.5568 63.3824 52.6993 65.0113 49.7953 65.0001C46.883 64.9896 44.1515 63.3329 40.9708 60.3816C40.743 60.1695 40.5615 59.9127 40.4375 59.6273C40.3134 59.3418 40.2496 59.0339 40.25 58.7227C40.2489 58.1635 40.4542 57.6236 40.8264 57.2063C41.1987 56.7891 41.7118 56.5239 42.2675 56.4614V56.4622Z" fill="black"/>
<path d="M56 46.9999C56 48.5912 55.3679 50.1173 54.2426 51.2425C53.1174 52.3677 51.5913 52.9999 50 52.9999C48.4087 52.9999 46.8826 52.3677 45.7574 51.2425C44.6321 50.1173 44 48.5912 44 46.9999C44 45.4086 44.6321 43.8825 45.7574 42.7573C46.8826 41.6321 48.4087 41 50 41C51.5913 41 53.1174 41.6321 54.2426 42.7573C55.3679 43.8825 56 45.4086 56 46.9999V46.9999Z" fill="black"/>
<path fill-rule="evenodd" clip-rule="evenodd" d="M50 51.4999C51.1935 51.4999 52.3381 51.0258 53.182 50.1819C54.0259 49.338 54.5 48.1934 54.5 46.9999C54.5 45.8065 54.0259 44.6619 53.182 43.818C52.3381 42.9741 51.1935 42.5 50 42.5C48.8065 42.5 47.6619 42.9741 46.818 43.818C45.9741 44.6619 45.5 45.8065 45.5 46.9999C45.5 48.1934 45.9741 49.338 46.818 50.1819C47.6619 51.0258 48.8065 51.4999 50 51.4999ZM50 52.9999C51.5913 52.9999 53.1174 52.3677 54.2426 51.2425C55.3679 50.1173 56 48.5912 56 46.9999C56 45.4086 55.3679 43.8825 54.2426 42.7573C53.1174 41.6321 51.5913 41 50 41C48.4087 41 46.8826 41.6321 45.7574 42.7573C44.6321 43.8825 44 45.4086 44 46.9999C44 48.5912 44.6321 50.1173 45.7574 51.2425C46.8826 52.3677 48.4087 52.9999 50 52.9999Z" fill="black"/>
</svg>
