<svg width="19" height="20" viewBox="0 0 19 20" fill="none" xmlns="http://www.w3.org/2000/svg">
    <path d="M6.84594 16V15.0498C7.41959 14.9578 7.87062 14.7432 8.19904 14.4061C8.52309 14.0689 8.68511 13.6748 8.68511 13.2193C8.68511 12.7902 8.5625 12.4443 8.31728 12.1859C8.07205 11.9275 7.77428 11.7436 7.41959 11.6429C7.06489 11.5422 6.71457 11.4502 6.36425 11.3758C6.00955 11.3014 5.71178 11.1963 5.46656 11.0518C5.22134 10.9072 5.09873 10.7058 5.09873 10.4431C5.09873 9.96576 5.48846 9.63296 6.21974 9.63296C6.88097 9.63296 7.28384 9.87381 7.42834 10.3511H8.54936C8.39172 9.46218 7.81369 8.87978 6.84594 8.70024V7.75H5.72492V8.68272C5.18631 8.75717 4.76154 8.94546 4.45064 9.25199C4.13535 9.5629 3.97771 9.95701 3.97771 10.4431C3.97771 10.7759 4.04339 11.0605 4.17476 11.297C4.4375 11.7699 4.86226 11.9713 5.37022 12.1246C5.87818 12.2822 6.40366 12.3654 6.81529 12.4881C7.22691 12.615 7.5203 12.8515 7.5203 13.2193C7.5203 13.7842 7.09554 14.117 6.21974 14.117C5.51473 14.117 5.01553 13.7799 4.87102 13.2193H3.75C3.90764 14.2659 4.6258 14.9228 5.72492 15.0673V16H6.84594Z" fill="#9281FF"/>
    <path d="M15 5.40816H15.75V5.07519L15.503 4.85187L15 5.40816ZM10.125 1L10.628 0.443703L10.4138 0.25H10.125V1ZM1.5 1V0.25H0.75V1H1.5ZM1.5 19H0.75V19.75H1.5V19ZM10.125 5.40816H9.375V6.15816H10.125V5.40816ZM15.75 8.34694V5.40816H14.25V8.34694H15.75ZM15.503 4.85187L10.628 0.443703L9.62197 1.5563L14.497 5.96446L15.503 4.85187ZM10.125 0.25H1.5V1.75H10.125V0.25ZM0.75 1V19H2.25V1H0.75ZM1.5 19.75H15V18.25H1.5V19.75ZM9.375 1V5.40816H10.875V1H9.375ZM10.125 6.15816H15V4.65816H10.125V6.15816ZM10.5 10.75C10.5 10.5318 10.6725 10.1692 11.3173 9.81743C11.9338 9.48117 12.8367 9.25 13.875 9.25V7.75C12.6352 7.75 11.4755 8.02251 10.599 8.50059C9.75092 8.9632 9 9.72556 9 10.75H10.5ZM13.875 9.25C14.9133 9.25 15.8162 9.48117 16.4327 9.81743C17.0775 10.1692 17.25 10.5318 17.25 10.75H18.75C18.75 9.72556 17.9991 8.9632 17.151 8.50059C16.2745 8.02251 15.1148 7.75 13.875 7.75V9.25ZM17.25 16.75C17.25 16.9682 17.0775 17.3308 16.4327 17.6826C15.8162 18.0188 14.9133 18.25 13.875 18.25V19.75C15.1148 19.75 16.2745 19.4775 17.151 18.9994C17.9991 18.5368 18.75 17.7744 18.75 16.75H17.25ZM13.875 18.25C12.8367 18.25 11.9338 18.0188 11.3173 17.6826C10.6725 17.3308 10.5 16.9682 10.5 16.75H9C9 17.7744 9.75092 18.5368 10.599 18.9994C11.4755 19.4775 12.6352 19.75 13.875 19.75V18.25ZM17.25 10.75C17.25 10.9682 17.0775 11.3308 16.4327 11.6826C15.8162 12.0188 14.9133 12.25 13.875 12.25V13.75C15.1148 13.75 16.2745 13.4775 17.151 12.9994C17.9991 12.5368 18.75 11.7744 18.75 10.75H17.25ZM13.875 12.25C12.8367 12.25 11.9338 12.0188 11.3173 11.6826C10.6725 11.3308 10.5 10.9682 10.5 10.75H9C9 11.7744 9.75092 12.5368 10.599 12.9994C11.4755 13.4775 12.6352 13.75 13.875 13.75V12.25ZM17.25 13.75C17.25 13.9682 17.0775 14.3308 16.4327 14.6826C15.8162 15.0188 14.9133 15.25 13.875 15.25V16.75C15.1148 16.75 16.2745 16.4775 17.151 15.9994C17.9991 15.5368 18.75 14.7744 18.75 13.75H17.25ZM13.875 15.25C12.8367 15.25 11.9338 15.0188 11.3173 14.6826C10.6725 14.3308 10.5 13.9682 10.5 13.75H9C9 14.7744 9.75092 15.5368 10.599 15.9994C11.4755 16.4775 12.6352 16.75 13.875 16.75V15.25ZM17.25 10.75V13.75H18.75V10.75H17.25ZM17.25 13.75V16.75H18.75V13.75H17.25ZM17.25 16.75V17.125H18.75V16.75H17.25ZM9 10.75V13.75H10.5V10.75H9ZM9 13.75V16.75H10.5V13.75H9ZM9 16.75V17.5H10.5V16.75H9Z" fill="#9281FF"/>
    </svg>
    